<svg xmlns="http://www.w3.org/2000/svg" width="230.79" height="79.011" viewBox="0 0 230.79 79.011">
  <g id="Group_49" data-name="Group 49" transform="translate(856.018 -1264.824)" opacity="0.27">
    <path id="Path_1" data-name="Path 1" d="M-791.144,1348.279c-4.533-.065-8.725-1.164-11.974-4.46-4.945-5.018-6.2-11.08-4.038-17.686,2.111-6.451,6.865-9.927,13.534-10.788a20.978,20.978,0,0,1,11.035,1.283c5.571,2.355,8.4,6.709,8.921,12.622a17.861,17.861,0,0,1-2.007,10.33,16.071,16.071,0,0,1-12.333,8.429C-789.041,1348.17-790.1,1348.193-791.144,1348.279Zm-11.389-18.073a57.858,57.858,0,0,0,.92,5.744c1.04,3.995,3.151,7.293,7.026,9.1,5.178,2.408,12.013,1.512,14.245-5.943a21.349,21.349,0,0,0-.25-13.516,12.156,12.156,0,0,0-7.193-7.744c-6.133-2.366-12.108.489-13.81,6.686A53.086,53.086,0,0,0-802.532,1330.206Z" transform="translate(-15.569 -16.368)" fill="#fff"/>
    <path id="Path_2" data-name="Path 2" d="M-667.8,1339.484c0-.283.006-.567,0-.85q-.224-9.425-.45-18.848c-.005-.216-.012-.432-.038-.646-.242-2.006-.911-2.608-2.928-2.676-.453-.015-.9-.1-1.357-.146l-.025-.328a3.855,3.855,0,0,1,.911-.229q4.772-.026,9.544,0a3.722,3.722,0,0,1,.812.189l.028.275a4.578,4.578,0,0,1-.884.231c-1.9.114-2.518.623-2.654,2.526-.132,1.854-.127,3.719-.159,5.58-.13,7.364-.244,14.726-.391,22.088a7.016,7.016,0,0,1-.363,1.5,5.656,5.656,0,0,1-1.418-.773q-11.015-11.128-21.984-22.3c-.242-.246-.475-.5-.785-.827a2.029,2.029,0,0,0-.127.461q.274,9.422.563,18.843a4.814,4.814,0,0,0,.076.722c.41,2.221.9,2.634,3.167,2.712a8.222,8.222,0,0,1,1.015.157l.011.324a4.107,4.107,0,0,1-.921.219q-4.893.025-9.786,0a4.264,4.264,0,0,1-.924-.211l.007-.276a6.012,6.012,0,0,1,.781-.208c.479-.065.965-.078,1.445-.139a1.428,1.428,0,0,0,1.321-1.229,14.386,14.386,0,0,0,.285-2.317c.166-8.846.3-17.692.475-26.538a6.724,6.724,0,0,1,.4-1.543,8.114,8.114,0,0,1,1.269.886q7.306,7.456,14.577,14.947c2.556,2.631,5.092,5.282,7.64,7.922.2.207.418.4.628.595Z" transform="translate(-51.786 -16.4)" fill="#fff"/>
    <path id="Path_3" data-name="Path 3" d="M-856.018,1316.194a5.21,5.21,0,0,1,.964-.184q5.461-.019,10.922,0a4.247,4.247,0,0,1,.875.186l.024.283a4.058,4.058,0,0,1-.8.231c-1.942.156-2.462.638-2.507,2.612-.076,3.4-.09,6.8-.126,10.2a5.377,5.377,0,0,0,.074.625,1.973,1.973,0,0,0,.447-.252q4.72-5,9.424-10.024a8.249,8.249,0,0,0,1.085-1.5c.463-.8.3-1.209-.507-1.667-.137-.078-.213-.263-.317-.4a1.862,1.862,0,0,1,.445-.274,2.138,2.138,0,0,1,.563-.018c2.777,0,5.554-.012,8.331.013a4.973,4.973,0,0,1,1.163.3c-.355.139-.706.3-1.069.413a25.819,25.819,0,0,0-2.906.916,8.024,8.024,0,0,0-2.208,1.476c-3.546,3.393-7.045,6.834-10.57,10.269a3.325,3.325,0,0,0,.3.493c4.417,4.693,8.806,9.413,13.275,14.056a11,11,0,0,0,5.707,3.2c.466.1.938.168,1.407.251l.006.32a3.893,3.893,0,0,1-.92.22q-3.236-.018-6.471-.092a5.709,5.709,0,0,1-3.914-1.522c-1.985-1.9-3.948-3.83-5.775-5.877-2.441-2.736-4.745-5.594-7.11-8.4a4.532,4.532,0,0,0-.377-.333c-.037.374-.084.613-.082.851.041,3.993.073,7.985.141,11.978.033,1.918.676,2.542,2.58,2.667.52.034,1.038.1,1.558.153l.005.375a4.579,4.579,0,0,1-.942.2q-5.542.021-11.084,0a4.618,4.618,0,0,1-.992-.222l.022-.318a7.821,7.821,0,0,1,.955-.162c1.764-.084,2.271-.489,2.415-2.242.153-1.853.258-3.715.26-5.573q.005-9.955-.082-19.911c-.015-2.05-.733-2.712-2.82-2.787-.455-.017-.909-.1-1.362-.152Z" transform="translate(0 -16.652)" fill="#fff"/>
    <path id="Path_4" data-name="Path 4" d="M-752.047,1316.176a5.819,5.819,0,0,1,.979-.166q5.581-.019,11.161,0a6.071,6.071,0,0,1,1.031.181l.007.319a5.953,5.953,0,0,1-.924.2c-1.9.117-2.379.507-2.536,2.408-.12,1.448-.1,2.909-.1,4.365-.012,3.884-.086,7.77.032,11.651a24.079,24.079,0,0,0,.795,5.652,7.634,7.634,0,0,0,8.183,5.578c4.057-.23,6.868-2.586,7.514-6.506a36.782,36.782,0,0,0,.44-5.712c.031-4.881-.03-9.763-.085-14.644-.024-2.056-.731-2.706-2.822-2.782a10.677,10.677,0,0,1-1.243-.185v-.325a4.624,4.624,0,0,1,.94-.2q4.771-.022,9.543,0a4.645,4.645,0,0,1,.888.174l.031.24a3,3,0,0,1-.633.271c-.316.058-.648.023-.967.067-1.269.173-1.841.718-1.889,2.006-.094,2.505-.117,5.013-.161,7.52-.061,3.5.014,7.016-.2,10.51-.294,4.787-2.223,8.727-6.9,10.628a15.673,15.673,0,0,1-12.876-.347c-3.361-1.56-4.981-4.514-5.543-8.049a36.266,36.266,0,0,1-.375-5.07c-.08-4.88-.073-9.762-.136-14.643-.024-1.821-.758-2.5-2.59-2.591-.528-.027-1.054-.093-1.581-.142Z" transform="translate(-33.825 -16.653)" fill="#fff"/>
    <path id="Path_5" data-name="Path 5" d="M-618.819,1315.078a54.842,54.842,0,0,1,9.946,1.191c.459.081.644.277.618.754-.106,1.964-.182,3.93-.279,5.893a6.546,6.546,0,0,1-.145,1.2c-.038.158-.26.271-.4.4-.113-.135-.294-.257-.323-.408-.071-.368-.038-.755-.105-1.124a5.876,5.876,0,0,0-3.65-4.6,16.986,16.986,0,0,0-8.554-1.16,9.945,9.945,0,0,0-8.4,5.744,17.014,17.014,0,0,0-1.518,8.346,14.775,14.775,0,0,0,5.76,11.79c3.722,2.876,7.928,3.308,12.352,2.248a6.043,6.043,0,0,0,4.4-4.344,5.239,5.239,0,0,1,.19-.7,2.061,2.061,0,0,1,.4-.439c.114.182.326.366.323.546a11.414,11.414,0,0,1-.161,1.686c-.206,1.248-.441,2.491-.665,3.737a1.706,1.706,0,0,1-1.394,1.5,35.47,35.47,0,0,1-4.125.731,29.371,29.371,0,0,1-11.679-1.036c-12.99-4.238-13.646-18.9-7.821-25.888a16.381,16.381,0,0,1,11.114-5.786C-621.568,1315.194-620.19,1315.167-618.819,1315.078Z" transform="translate(-71.087 -16.352)" fill="#fff"/>
    <path id="Path_6" data-name="Path 6" d="M-586.775,1316.061a12.065,12.065,0,0,1,1.418-.153c4.99.028,9.981.1,14.971.1,1.251,0,2.5-.2,3.812-.318a.664.664,0,0,1,.089.292c-.161,1.716-.322,3.433-.519,5.145-.028.245-.252.467-.385.7a2.459,2.459,0,0,1-.353-.7c-.291-2.083-.814-2.677-2.922-2.839-1.961-.151-3.935-.133-5.9-.205-.488-.018-.683.183-.681.66q.009,5.18,0,10.36c0,.478.207.682.687.67,2.319-.057,4.64-.053,6.954-.186a5.138,5.138,0,0,0,1.711-.759,6.066,6.066,0,0,0,.675-.486c0,.457.019.73,0,1-.145,1.8-.287,3.6-.464,5.4-.023.235-.234.452-.357.678a2.458,2.458,0,0,1-.293-.655c-.272-2.173-.919-2.809-3.1-2.883-1.7-.057-3.4-.043-5.1-.071-.4-.006-.708.047-.7.542.028,3.587-.014,7.175.113,10.758.059,1.655.711,2.323,2.348,2.46a35.722,35.722,0,0,0,5.481-.009,3.143,3.143,0,0,0,2.985-2.823,13.364,13.364,0,0,1,.393-1.29l.3.026a2.6,2.6,0,0,1,.163.774c-.154,1.527-.325,3.052-.532,4.573a1.182,1.182,0,0,1-1.336,1.112c-2.94-.047-5.88-.088-8.82-.107-2.75-.017-5.5,0-8.25-.009-.575,0-1.15-.075-1.725-.115l-.011-.386a6.522,6.522,0,0,1,.932-.179c1.831-.091,2.323-.509,2.464-2.375.132-1.746.209-3.5.212-5.251q.016-9.954-.039-19.908c-.011-2.26-.7-2.909-2.966-2.987a11.384,11.384,0,0,1-1.249-.176Z" transform="translate(-87.61 -16.551)" fill="#fff"/>
    <path id="Path_7" data-name="Path 7" d="M-693.325,1267.573a6.336,6.336,0,0,1,7.915-2.187,25.436,25.436,0,0,1,2.808,1.236,13.239,13.239,0,0,0,6.55,1.481c.756-.024,1.043.2,1.04,1.005-.028,7.092-.015,14.185-.016,21.277,0,.976-.07,1.147-1.067,1-1.749-.264-3.476-.684-5.206-1.067-1.707-.378-3.407-.791-5.111-1.189a5.461,5.461,0,0,0-5.6,1.84,2.9,2.9,0,0,1-3.211-.013,5.482,5.482,0,0,0-5.685-1.8c-2.876.7-5.758,1.376-8.638,2.063-.157.037-.31.091-.469.119-1.394.24-1.534.121-1.534-1.286q0-10.437,0-20.873c0-1.008.038-1.068,1.042-1.052a14.724,14.724,0,0,0,6.7-1.559,17.415,17.415,0,0,1,4.3-1.574A5.516,5.516,0,0,1-693.325,1267.573Zm-.934,21.727a1.467,1.467,0,0,0,.049-.256q0-9.746-.011-19.491a1.69,1.69,0,0,0-.366-.938c-1.672-2.189-3.656-2.659-6.374-1.558a39.149,39.149,0,0,1-4.282,1.666,44.528,44.528,0,0,1-4.693.78v20.6a14.905,14.905,0,0,0,1.49-.269c2.172-.625,4.329-1.3,6.5-1.91,2.724-.767,5.337-.817,7.529,1.379C-694.4,1289.311-694.364,1289.3-694.259,1289.3Zm1.88.18c.3-.245.435-.357.57-.474a5.341,5.341,0,0,1,4.6-1.5c1.895.366,3.761.885,5.632,1.369,1.628.422,3.244.89,4.9,1.347a3.441,3.441,0,0,0,.111-.5q-.027-9.907-.053-19.814c0-.565-.3-.576-.72-.583a16.215,16.215,0,0,1-6.789-1.594c-.654-.313-1.326-.6-2.008-.847a4.653,4.653,0,0,0-5.659,1.465,2.25,2.25,0,0,0-.6,1.6c.022,6.173.013,12.347.013,18.52Z" transform="translate(-47.01)" fill="#fff"/>
    <path id="Path_8" data-name="Path 8" d="M-546.682,1316.172a6.8,6.8,0,0,1,1.043-.162q5.623-.017,11.245,0a5.827,5.827,0,0,1,.964.162l.03.293a2.73,2.73,0,0,1-.792.237c-2.836-.054-3.185.868-3.183,3.2q.008,11.126.05,22.252a8.84,8.84,0,0,0,.174,1.362,2.156,2.156,0,0,0,1.81,1.922,19.317,19.317,0,0,0,7.154.094c1.8-.31,2.489-1.714,2.869-3.326a7.3,7.3,0,0,1,.3-.824l.269.019a2.371,2.371,0,0,1,.175.764c-.185,1.577-.4,3.151-.622,4.723a1.2,1.2,0,0,1-1.345,1.113c-3.02-.022-6.041-.058-9.061-.07s-6.04-.019-9.059.01c-1.131.011-1.168.05-1.749-.53a11.525,11.525,0,0,1,1.141-.175c1.646-.08,2.157-.443,2.295-2.083.188-2.228.291-4.467.307-6.7.04-5.5.014-11.007,0-16.511,0-.889-.053-1.779-.108-2.667-.113-1.835-.776-2.458-2.637-2.549-.426-.021-.849-.106-1.273-.161Z" transform="translate(-100.657 -16.653)" fill="#fff"/>
    <path id="Path_9" data-name="Path 9" d="M-614.034,1377.942v-2.9l.229-.146c.171.21.481.415.49.632.05,1.13.036,2.263.009,3.395a.613.613,0,0,1-.3.482.7.7,0,0,1-.536-.243,29.1,29.1,0,0,0-2.348-2.49c0,.671.036,1.346-.018,2.013a2.325,2.325,0,0,1-.374.755c-.123-.254-.346-.505-.354-.763-.038-1.207-.017-2.415-.017-3.9C-615.814,1375.556-615.259,1376.96-614.034,1377.942Z" transform="translate(-77.693 -35.778)" fill="#fff"/>
    <path id="Path_10" data-name="Path 10" d="M-800.706,1376.309l-1.448,1.674-1.278-1.491-.179.053c0,.765.028,1.531-.016,2.293-.013.235-.223.459-.343.689-.134-.222-.376-.44-.385-.667-.042-1.075-.029-2.153-.014-3.229a2.178,2.178,0,0,1,.165-.565c.213.086.484.117.626.27.473.508.9,1.06,1.429,1.7.474-.591.891-1.135,1.339-1.653.125-.145.424-.332.5-.282a.806.806,0,0,1,.346.552q.047,1.7,0,3.391c0,.167-.252.327-.387.49-.118-.176-.33-.347-.338-.529C-800.727,1378.184-800.706,1377.364-800.706,1376.309Z" transform="translate(-16.802 -35.873)" fill="#fff"/>
    <path id="Path_11" data-name="Path 11" d="M-746.914,1378.334c.262-.717.436-1.249.658-1.761a.618.618,0,0,1,.4-.3c.084-.016.254.174.31.3.217.506.4,1.024.689,1.759.376-1.04.649-1.868.982-2.67.1-.232.362-.393.55-.587.049.281.207.6.127.839-.362,1.067-.78,2.116-1.209,3.16-.078.188-.3.315-.463.471a2.2,2.2,0,0,1-.446-.5c-.195-.435-.331-.9-.571-1.575-.25.687-.4,1.173-.607,1.637-.076.171-.259.4-.4.407s-.372-.2-.438-.361c-.466-1.144-.914-2.3-1.326-3.459-.058-.162.111-.405.175-.611.175.12.443.2.51.368C-747.619,1376.34-747.308,1377.249-746.914,1378.334Z" transform="translate(-34.929 -35.875)" fill="#fff"/>
    <path id="Path_12" data-name="Path 12" d="M-734.156,1378.1c.184-.5.353-1,.562-1.484.065-.15.237-.351.364-.353s.312.19.376.339c.213.49.383,1,.649,1.71.231-.6.4-1.03.559-1.459.167-.453.295-.925.5-1.359.086-.179.333-.281.507-.419.073.2.258.448.2.606-.42,1.19-.879,2.366-1.352,3.537a.553.553,0,0,1-.405.3.575.575,0,0,1-.393-.321c-.207-.492-.367-1-.622-1.726-.242.666-.4,1.15-.6,1.615-.076.175-.292.447-.385.425a.805.805,0,0,1-.5-.409c-.449-1.093-.876-2.2-1.265-3.312-.067-.2.086-.467.137-.7.186.143.466.248.543.436.343.839.628,1.7.934,2.557Z" transform="translate(-39.063 -35.877)" fill="#fff"/>
    <path id="Path_13" data-name="Path 13" d="M-689.587,1376.761c0,.686.032,1.375-.018,2.058-.017.228-.24.441-.369.66-.11-.213-.31-.424-.316-.64-.03-1.235-.015-2.471-.015-3.915,1.463.6,1.92,2.1,3.113,2.949v-2.758c.53-.165.807-.088.806.453,0,1.106.009,2.212-.009,3.317a1.956,1.956,0,0,1-.2.569c-.208-.084-.477-.112-.615-.26-.568-.613-1.094-1.263-1.64-1.9-.171-.2-.355-.385-.534-.577Z" transform="translate(-53.922 -35.827)" fill="#fff"/>
    <path id="Path_14" data-name="Path 14" d="M-701.966,1376.493l-1.249,1.47-1.46-1.672c0,1,.029,1.769-.018,2.535-.014.234-.235.456-.361.683-.123-.228-.347-.454-.354-.686-.036-1.232-.017-2.466-.017-3.808,1.205.165,1.371,1.421,2.273,1.916.42-.523.839-1.075,1.294-1.6.12-.137.382-.281.52-.237a.627.627,0,0,1,.289.493c.026,1.131.029,2.264,0,3.394,0,.18-.222.353-.341.529-.134-.19-.373-.374-.385-.571-.044-.8-.018-1.6-.018-2.4Z" transform="translate(-49.002 -35.856)" fill="#fff"/>
    <path id="Path_15" data-name="Path 15" d="M-653.539,1377.289a2.2,2.2,0,0,1-2.219,2.27,2.24,2.24,0,0,1-2.286-2.222,2.307,2.307,0,0,1,2.239-2.3A2.265,2.265,0,0,1-653.539,1377.289Zm-.764.034a1.515,1.515,0,0,0-1.451-1.523,1.55,1.55,0,0,0-1.521,1.552,1.547,1.547,0,0,0,1.509,1.48A1.5,1.5,0,0,0-654.3,1377.323Z" transform="translate(-64.421 -35.864)" fill="#fff"/>
    <path id="Path_16" data-name="Path 16" d="M-633.139,1377.341a2.269,2.269,0,0,1,2.213-2.305,2.336,2.336,0,0,1,2.3,2.247,2.261,2.261,0,0,1-2.243,2.273A2.193,2.193,0,0,1-633.139,1377.341Zm2.246,1.486a1.55,1.55,0,0,0,1.5-1.493,1.569,1.569,0,0,0-1.46-1.534,1.513,1.513,0,0,0-1.516,1.539A1.49,1.49,0,0,0-630.893,1378.827Z" transform="translate(-72.525 -35.863)" fill="#fff"/>
    <path id="Path_17" data-name="Path 17" d="M-582.459,1379.557a2.2,2.2,0,0,1-2.226-2.264,2.274,2.274,0,0,1,2.265-2.256,2.333,2.333,0,0,1,2.253,2.294A2.262,2.262,0,0,1-582.459,1379.557Zm1.523-2.229a1.579,1.579,0,0,0-1.471-1.528,1.518,1.518,0,0,0-1.511,1.466,1.509,1.509,0,0,0,1.488,1.564A1.562,1.562,0,0,0-580.936,1377.328Z" transform="translate(-88.292 -35.863)" fill="#fff"/>
    <path id="Path_18" data-name="Path 18" d="M-770.118,1375.018c1.18,0,2.342-.308,3.086.851.529.823.193,1.537-.429,2.215a6.067,6.067,0,0,1,.531.809c.069.151,0,.367-.01.554a3.5,3.5,0,0,1-.563-.142c-.083-.036-.144-.16-.185-.258-.3-.708-.848-.814-1.574-.633a2.093,2.093,0,0,1-.1.5,4.782,4.782,0,0,1-.366.6c-.131-.2-.371-.389-.376-.59C-770.135,1377.654-770.118,1376.391-770.118,1375.018Zm.8,2.635c.693.1,1.326.143,1.627-.495a1.086,1.086,0,0,0-.088-1,6.307,6.307,0,0,0-1.539-.624Z" transform="translate(-27.95 -35.846)" fill="#fff"/>
    <path id="Path_19" data-name="Path 19" d="M-573.548,1378.113a4.284,4.284,0,0,1,.458.692,2.14,2.14,0,0,1,.062.631c-.221-.078-.56-.093-.643-.246-.379-.7-.868-1.054-1.672-.772-.03.059-.059.1-.077.151-.125.324.212.93-.457.887-.13-.009-.307-.592-.318-.915-.038-1.149-.015-2.3-.015-3.512,1.154-.007,2.3-.323,3.059.82C-572.693,1376.54-572.794,1377.07-573.548,1378.113Zm-1.865-.427c.681.042,1.32.115,1.62-.527a1.086,1.086,0,0,0-.087-1,6.292,6.292,0,0,0-1.533-.624Z" transform="translate(-91.047 -35.846)" fill="#fff"/>
    <path id="Path_20" data-name="Path 20" d="M-696.019,1377.68c-.165,1.129-.16,1.133.819,1.143a7.738,7.738,0,0,1,1.128.033c.157.026.284.239.425.366-.132.109-.26.305-.4.311a19.213,19.213,0,0,1-2.339-.01.776.776,0,0,1-.476-.577c-.045-1.26-.022-2.524-.022-3.905.967,0,1.9-.014,2.831.015.132,0,.256.22.384.337-.142.126-.278.351-.428.36-.636.041-1.277.017-1.967.017v1.182a10.314,10.314,0,0,1,1.324.018c.211.028.4.236.6.362-.186.116-.364.308-.562.332A11.16,11.16,0,0,1-696.019,1377.68Z" transform="translate(-51.781 -35.863)" fill="#fff"/>
    <path id="Path_21" data-name="Path 21" d="M-603.315,1375.028c.979,0,1.838-.022,2.694.017.174.008.337.244.505.375-.178.115-.35.317-.536.331-.585.043-1.174.016-1.828.016v1.184c.482,0,.959-.029,1.43.016.161.015.3.216.456.333-.148.123-.287.335-.447.352a12.491,12.491,0,0,1-1.345.017c-.313,1.035-.241,1.138.731,1.149a7.778,7.778,0,0,1,1.127.034c.156.025.283.237.422.364-.13.109-.256.306-.39.312a21.292,21.292,0,0,1-2.339-.007c-.171-.012-.343-.321-.468-.521-.061-.1-.014-.262-.014-.4C-603.316,1377.448-603.315,1376.3-603.315,1375.028Z" transform="translate(-82.224 -35.859)" fill="#fff"/>
    <path id="Path_22" data-name="Path 22" d="M-776.614,1375.027c.97,0,1.8-.021,2.637.015.189.009.37.216.555.331-.191.131-.373.358-.573.376-.583.05-1.173.018-1.805.018v1.18a8.153,8.153,0,0,1,1.218.016,2.348,2.348,0,0,1,.681.358,2.751,2.751,0,0,1-.715.339,7.724,7.724,0,0,1-1.175.016v1.147c.6,0,1.2-.032,1.805.019.2.017.38.25.57.384-.186.11-.365.3-.561.318-2.636.283-2.636.276-2.636-2.331Z" transform="translate(-25.838 -35.858)" fill="#fff"/>
    <path id="Path_23" data-name="Path 23" d="M-716.124,1375.083c.616-.118.786.124.764.6-.016.374,0,.749,0,1.191h2.191v-1.736l.228-.171c.186.189.525.371.534.567.051,1.157.038,2.317.011,3.475,0,.162-.206.32-.316.479-.134-.162-.359-.308-.389-.487-.223-1.311-.21-1.282-1.49-1.3-.6-.01-.806.172-.791.78a1.754,1.754,0,0,1-.325.972c-.666-.069-.39-.641-.4-1.015C-716.147,1377.335-716.124,1376.233-716.124,1375.083Z" transform="translate(-45.51 -35.841)" fill="#fff"/>
    <path id="Path_24" data-name="Path 24" d="M-624.608,1374.942c.147.258.394.506.422.776.065.612.011,1.235.024,1.853a1.145,1.145,0,0,0,1.143,1.276,1.16,1.16,0,0,0,1.211-1.293c.016-.671-.02-1.345.016-2.015.009-.177.2-.344.3-.516.143.161.4.317.41.484a19.5,19.5,0,0,1,0,2.5,1.845,1.845,0,0,1-1.91,1.613,1.857,1.857,0,0,1-1.914-1.614c-.066-.958-.014-1.924-.014-2.887Z" transform="translate(-75.193 -35.832)" fill="#fff"/>
    <path id="Path_25" data-name="Path 25" d="M-637.853,1379.7a2.609,2.609,0,0,1-2.2-1.462,2.166,2.166,0,0,1,.378-2.412,2.221,2.221,0,0,1,2.427-.646,1.561,1.561,0,0,1,.675.416,1.762,1.762,0,0,1,.186.675,5.5,5.5,0,0,1-.633-.078,4.352,4.352,0,0,0-1.271-.312,1.2,1.2,0,0,0-1.13,1.185,2.4,2.4,0,0,0,.611,1.457,1.215,1.215,0,0,0,1.635.042c.09-.059.166-.166.262-.185a4.281,4.281,0,0,1,.583-.04c-.046.213-.021.53-.152.619A13.066,13.066,0,0,1-637.853,1379.7Z" transform="translate(-70.207 -35.869)" fill="#fff"/>
    <path id="Path_26" data-name="Path 26" d="M-792.477,1379.206c-.129.156-.221.36-.316.361a.647.647,0,0,1-.459-.21,1.319,1.319,0,0,0-2.294.017c-.1.125-.352.13-.534.189-.049-.163-.182-.357-.134-.484.458-1.231.933-2.457,1.448-3.665.049-.115.575-.175.594-.132C-793.587,1376.573-793.039,1377.88-792.477,1379.206Zm-1.822-2.651-.208.024-.54,1.51h1.334Z" transform="translate(-19.457 -35.938)" fill="#fff"/>
    <path id="Path_27" data-name="Path 27" d="M-750.8,1379.2c-.091.134-.178.36-.254.355a.762.762,0,0,1-.523-.208,1.326,1.326,0,0,0-2.256-.018c-.1.139-.335.182-.507.27-.06-.183-.216-.4-.164-.545.455-1.232.936-2.455,1.452-3.662.041-.094.562-.124.59-.062C-751.888,1376.6-751.355,1377.883-750.8,1379.2Zm-1.916-2.866-.661,1.734h1.351Z" transform="translate(-33.03 -35.948)" fill="#fff"/>
    <path id="Path_28" data-name="Path 28" d="M-609.421,1378.309c.288.178.567.48.867.5a3.571,3.571,0,0,0,1.124-.287,3.836,3.836,0,0,0-.58-.733c-.269-.212-.69-.256-.91-.5-.283-.308-.648-.786-.58-1.106a1.4,1.4,0,0,1,.916-.93,4.349,4.349,0,0,1,1.7.4c.073.024.042.362.06.553a1.645,1.645,0,0,1-.511-.021c-.245-.091-.465-.343-.7-.347s-.5.2-.747.319c.13.208.213.484.4.612a9.627,9.627,0,0,1,1.129.606c.3.28.678.751.629,1.078a1.427,1.427,0,0,1-.848,1.007,4.024,4.024,0,0,1-1.831-.206c-.183-.053-.242-.536-.358-.822Z" transform="translate(-80.164 -35.933)" fill="#fff"/>
    <path id="Path_29" data-name="Path 29" d="M-788.247,1379.717a9.321,9.321,0,0,1-1.207-.692c-.116-.089-.047-.419-.063-.64.188.042.376.075.561.127a5.572,5.572,0,0,0,1.1.3c.155.01.408-.265.467-.456.036-.119-.172-.378-.33-.48-.314-.2-.677-.328-1.007-.507-.5-.272-.9-.644-.778-1.277a1.2,1.2,0,0,1,1.3-.988,3.386,3.386,0,0,1,1.323.474c.109.055.088.365.128.558a2.1,2.1,0,0,1-.577-.01,5.116,5.116,0,0,0-.866-.335.727.727,0,0,0-.531.373c-.051.095.128.393.276.5a7.415,7.415,0,0,0,.93.48c.574.292,1.108.623.975,1.4C-786.65,1379.156-787.353,1379.594-788.247,1379.717Z" transform="translate(-21.637 -35.885)" fill="#fff"/>
    <path id="Path_30" data-name="Path 30" d="M-679.05,1379.23c-.1.127-.2.344-.279.336a.772.772,0,0,1-.513-.235,1.326,1.326,0,0,0-2.261.017c-.1.134-.341.165-.516.243-.055-.162-.2-.356-.152-.48.466-1.256.953-2.505,1.475-3.739.035-.083.562-.095.595-.02C-680.131,1376.62-679.6,1377.908-679.05,1379.23Zm-2.6-1.154h1.361l-.681-1.7Z" transform="translate(-56.372 -35.949)" fill="#fff"/>
    <path id="Path_31" data-name="Path 31" d="M-649.534,1375.027a15.041,15.041,0,0,1,1.809.014,1.667,1.667,0,0,1,1.486,1.721,1.651,1.651,0,0,1-1.62,1.583c-.264.023-.531,0-.8,0a2.5,2.5,0,0,1-.115.365c-.138.268-.288.53-.434.793a2.65,2.65,0,0,1-.314-.81C-649.553,1377.5-649.534,1376.293-649.534,1375.027Zm.732.667c0,.6-.014,1.08.009,1.558.007.14.119.4.181.395a2.374,2.374,0,0,0,1.154-.143,1.118,1.118,0,0,0,.411-.928,1.348,1.348,0,0,0-.671-.79A3.038,3.038,0,0,0-648.8,1375.694Z" transform="translate(-67.188 -35.853)" fill="#fff"/>
    <path id="Path_32" data-name="Path 32" d="M-672.95,1378.308c.293.179.571.477.868.5a3.661,3.661,0,0,0,1.127-.277,3.69,3.69,0,0,0-.568-.74c-.266-.212-.688-.253-.909-.493-.282-.306-.644-.777-.582-1.1a1.4,1.4,0,0,1,.893-.941,3.791,3.791,0,0,1,1.636.335c.1.033.093.4.135.608a2.39,2.39,0,0,1-.573-.052c-.171-.057-.325-.3-.466-.281a4.6,4.6,0,0,0-.911.287,2.322,2.322,0,0,0,.455.652c.371.258.827.392,1.2.644a1.068,1.068,0,0,1-.051,1.9,1.929,1.929,0,0,1-2,.034C-673.168,1379.129-673.212,1378.9-672.95,1378.308Z" transform="translate(-59.518 -35.93)" fill="#fff"/>
    <path id="Path_33" data-name="Path 33" d="M-568.713,1379.617a9.633,9.633,0,0,1-1.065-.633c-.105-.078-.048-.377-.065-.574a3.5,3.5,0,0,1,.561.084,4.713,4.713,0,0,0,1.027.343c.186.011.47-.256.556-.462.047-.113-.187-.418-.363-.532-.358-.234-.772-.38-1.145-.6a1.061,1.061,0,0,1-.539-1.309,1.171,1.171,0,0,1,1.326-.838,4.158,4.158,0,0,1,1.382.667.492.492,0,0,1-.08.406.525.525,0,0,1-.436-.011c-.243-.1-.459-.354-.7-.366a2.08,2.08,0,0,0-.762.286,2.114,2.114,0,0,0,.36.633,3.663,3.663,0,0,0,.789.4c.607.3,1.186.637.989,1.452S-567.737,1379.521-568.713,1379.617Z" transform="translate(-93.121 -35.88)" fill="#fff"/>
    <path id="Path_34" data-name="Path 34" d="M-782.321,1375.785a5.867,5.867,0,0,1-1-.015c-.169-.033-.308-.215-.461-.329.139-.135.274-.38.418-.385q1.41-.054,2.821,0c.151.005.293.238.439.365-.171.122-.36.369-.51.347-.935-.14-.993.4-.958,1.1a20.136,20.136,0,0,1-.009,2.1c-.01.19-.2.371-.306.556-.144-.183-.4-.36-.411-.548C-782.343,1377.952-782.321,1376.933-782.321,1375.785Z" transform="translate(-23.504 -35.861)" fill="#fff"/>
    <path id="Path_35" data-name="Path 35" d="M-662.787,1375.833a8.058,8.058,0,0,1-1.089-.064c-.142-.028-.355-.219-.35-.326.007-.136.2-.371.32-.374q1.489-.045,2.98,0c.122,0,.235.236.353.363-.146.12-.309.358-.434.339-.989-.143-1.1.4-1.034,1.183a14.647,14.647,0,0,1-.011,2.014c-.011.189-.2.368-.308.551-.142-.183-.4-.361-.408-.55C-662.809,1377.953-662.787,1376.936-662.787,1375.833Z" transform="translate(-62.409 -35.866)" fill="#fff"/>
    <path id="Path_36" data-name="Path 36" d="M-721.375,1375.023a9.745,9.745,0,0,1,1.287.018c.189.026.352.243.526.373-.173.122-.363.368-.515.345-.916-.131-1.009.372-.969,1.091a20.368,20.368,0,0,1-.021,2.174c-.009.165-.2.32-.3.48-.132-.161-.369-.316-.38-.485a22.878,22.878,0,0,1-.041-2.415c.026-.606-.129-.9-.8-.844-.219.017-.457-.223-.686-.345a2.386,2.386,0,0,1,.694-.377,7.644,7.644,0,0,1,1.206-.017Z" transform="translate(-43.195 -35.852)" fill="#fff"/>
    <path id="Path_37" data-name="Path 37" d="M-590.351,1375.089c.631-.169.773.128.769.619-.008.988,0,1.976,0,3.061.69,0,1.277-.03,1.858.018.187.016.357.238.535.366-.174.123-.345.25-.524.365-.038.025-.105.007-.159.006-2.975-.052-2.417.438-2.474-2.354C-590.363,1376.475-590.351,1375.779-590.351,1375.089Z" transform="translate(-86.446 -35.865)" fill="#fff"/>
    <path id="Path_38" data-name="Path 38" d="M-596.772,1375.087c.595-.16.751.115.751.575,0,.81.028,1.62-.005,2.428-.023.541.189.723.708.682a5.038,5.038,0,0,1,1.21.02c.173.029.31.275.464.422-.164.1-.325.21-.494.3a.367.367,0,0,1-.161.006c-2.954-.056-2.415.458-2.471-2.37C-596.784,1376.484-596.772,1375.812-596.772,1375.087Z" transform="translate(-84.357 -35.865)" fill="#fff"/>
    <path id="Path_39" data-name="Path 39" d="M-760.342,1375.054c.726-.075.742.349.745.766.007.937,0,1.874,0,2.95.633,0,1.214-.036,1.786.02.193.019.362.273.542.419-.184.105-.364.29-.554.3a11.015,11.015,0,0,1-1.928-.014.821.821,0,0,1-.567-.552C-760.368,1377.664-760.342,1376.379-760.342,1375.054Z" transform="translate(-31.131 -35.866)" fill="#fff"/>
    <path id="Path_40" data-name="Path 40" d="M-725.683,1374.941c.153.235.428.466.439.707.047,1.1.04,2.2,0,3.291-.007.188-.268.365-.413.548-.109-.156-.311-.309-.314-.466-.026-1.305-.014-2.612-.014-3.918Z" transform="translate(-42.312 -35.832)" fill="#fff"/>
    <path id="Path_41" data-name="Path 41" d="M-676.2,1375.9l.769-.785c.093.138.3.351.262.4a7.022,7.022,0,0,1-.655.748Z" transform="translate(-58.512 -35.89)" fill="#fff"/>
    <path id="Path_42" data-name="Path 42" d="M-699.47,1281.375c1.665-.81,3.32-3.248,3.222-4.673l.231-.07a3.615,3.615,0,0,1,.2,1.218,5.69,5.69,0,0,1-2.875,3.717c-.178.111-.371.2-.661.352,1.3,2.05,1.659,4.791,4.652,5.435-2.557.4-3.519-.493-5.132-4.811-.248.78-.437,1.421-.658,2.051a3.633,3.633,0,0,1-.524,1.166c-.2.237-.621.288-1.127.5a18.329,18.329,0,0,0,1.834-7.213c.04-1.269-.534-2.1-1.369-2.16-.814-.062-1.753.9-1.929,1.981-.145.885.13,1.932.629,2.03,1.027.2,1.2-.776,1.709-1.309a2.268,2.268,0,0,1-1.261,1.625,1.3,1.3,0,0,1-1.805-.859,2.818,2.818,0,0,1,.749-2.833,2.479,2.479,0,0,1,2.562-.788,2.371,2.371,0,0,1,1.749,2.5A21.317,21.317,0,0,1-699.47,1281.375Z" transform="translate(-49.319 -3.843)" fill="#fff"/>
    <path id="Path_43" data-name="Path 43" d="M-672.76,1284.021c3.478.983,4.823,2.088,4.145,3.409-.847-1.659-2.492-2.124-4.065-2.66a1.292,1.292,0,0,0-.918.305c-.878.621-1.809,1.086-2.839.54a1.779,1.779,0,0,1-.751-1.189,1.16,1.16,0,0,1,.962-1.23c.606-.184,1.031.169,1.322,1.086,1.685-.383,1.309-1.99,1.983-3.13-.392,0-.629.022-.861,0a1.946,1.946,0,0,1-1.808-1.857,2.266,2.266,0,0,1,1.349-2.348,1.111,1.111,0,0,1,1.607.962c-.663-.9-1.551-.828-1.912.262a3.723,3.723,0,0,0-.03,2.013c.081.312.709.584,1.133.677.554.122.661-.382.78-.819a17.393,17.393,0,0,1,.643-2,3.851,3.851,0,0,1,.75-1.229,1.2,1.2,0,0,1,1.54-.311c.581.354.424.953.17,1.369-.526.866-1.175,1.656-1.758,2.487a4.99,4.99,0,0,0-.679,1.119C-672.3,1282.308-672.512,1283.17-672.76,1284.021Zm1.088-3.7a5.126,5.126,0,0,0,1.99-2.969c.043-.2-.167-.458-.259-.688-.2.1-.472.154-.6.316A6.553,6.553,0,0,0-671.672,1280.317Zm-3.947,4.823c.111-.2.221-.31.225-.425a3.237,3.237,0,0,0-.055-.967.627.627,0,0,0-.557-.109c-.247.207-.593.538-.563.777a1.505,1.505,0,0,0,.587,1.077c.656.295,1.117-.166,1.381-.837Z" transform="translate(-58.188 -3.745)" fill="#fff"/>
  </g>
</svg>
