<svg xmlns="http://www.w3.org/2000/svg" width="194.138" height="38.013" viewBox="0 0 194.138 38.013">
  <g id="Logo_Use" data-name="Logo Use" transform="translate(-255.86 -854.3)">
    <g id="Group_186" data-name="Group 186" transform="translate(255.86 854.3)">
      <g id="Group_185" data-name="Group 185" transform="translate(0 0)">
        <path id="Path_189" data-name="Path 189" d="M263.8,870.03h.179c1.212-1.319,6.413-6.626,7.446-7.838,1-1.175,1.782-2.066,1.782-2.672,0-.391-.142-.642-.5-.712-.321-.072-.463-.142-.463-.356,0-.249.179-.321.57-.321.749,0,2.708.107,3.669.107,1.1,0,3.064-.107,4.169-.107.356,0,.605.072.605.321s-.179.321-.535.321a6.967,6.967,0,0,0-2.066.391,11.4,11.4,0,0,0-3.848,2.672c-1.1,1.068-6.484,6.413-7.7,7.7,1.282,1.675,8.266,9.192,9.655,10.51,1.568,1.5,3.171,3.1,5.1,3.848a6.182,6.182,0,0,0,2.208.535c.249,0,.463.072.463.286,0,.249-.179.356-.854.356h-3.1c-1.068,0-1.71,0-2.459-.072-1.924-.179-2.885-.961-4.418-2.315-1.568-1.389-8.586-9.62-9.335-10.653l-.391-.535H263.8v3.242c0,3.278,0,6.093.107,7.624.072,1,.391,1.782,1.282,1.924a14.9,14.9,0,0,0,1.745.142c.286,0,.463.107.463.286,0,.249-.286.356-.677.356-2,0-4.239-.107-5.13-.107-.819,0-3.064.107-4.489.107-.463,0-.712-.107-.712-.356,0-.179.142-.286.57-.286a5.866,5.866,0,0,0,1.282-.142c.712-.142.891-.926,1.033-1.959.179-1.5.179-4.311.179-7.589v-6.27c0-5.416,0-6.413-.072-7.553-.072-1.212-.356-1.782-1.531-2.031a7.294,7.294,0,0,0-1.389-.107c-.391,0-.605-.072-.605-.321s.249-.321.784-.321c1.889,0,4.132.107,4.988.107s3.1-.107,4.311-.107c.5,0,.749.072.749.321s-.214.321-.5.321a5.268,5.268,0,0,0-1,.107c-.961.179-1.247.784-1.319,2.031-.072,1.14-.072,2.138-.072,7.553v1.568Z" transform="translate(-255.86 -857.63)" fill="#fff"/>
        <path id="Path_190" data-name="Path 190" d="M464.25,868.277c0-6.093,4.025-13.966,14.714-13.966,8.871,0,14.394,5.165,14.394,13.325s-5.7,14.607-14.75,14.607C468.382,882.243,464.25,874.583,464.25,868.277Zm24.12.677c0-7.981-4.6-12.933-10.439-12.933-4.1,0-8.764,2.28-8.764,11.151,0,7.411,4.1,13.29,10.938,13.29C482.6,880.461,488.37,879.251,488.37,868.954Z" transform="translate(-437.067 -854.309)" fill="#fff"/>
        <path id="Path_191" data-name="Path 191" d="M711.488,868.462c0-5.416,0-6.413-.072-7.553-.072-1.212-.356-1.782-1.531-2.031a7.288,7.288,0,0,0-1.389-.107c-.391,0-.605-.072-.605-.321s.249-.321.784-.321c1.889,0,4.132.107,5.2.107.856,0,3.1-.107,4.383-.107.535,0,.784.072.784.321s-.214.321-.57.321a5.323,5.323,0,0,0-1.033.107c-.961.179-1.247.784-1.319,2.031-.072,1.14-.072,2.138-.072,7.553v4.988c0,5.166,1.033,7.339,2.778,8.765a6.59,6.59,0,0,0,4.453,1.461,6.973,6.973,0,0,0,4.916-1.924c1.959-1.959,2.066-5.166,2.066-8.836v-4.453c0-5.416,0-6.412-.072-7.552-.072-1.212-.356-1.782-1.531-2.031a6.862,6.862,0,0,0-1.282-.107c-.391,0-.605-.072-.605-.321s.249-.321.749-.321c1.817,0,4.062.107,4.1.107.428,0,2.671-.107,4.062-.107.5,0,.749.072.749.321s-.214.321-.642.321a5.324,5.324,0,0,0-1.033.107c-.961.179-1.247.784-1.319,2.031-.072,1.14-.072,2.138-.072,7.552v3.813c0,3.955-.391,8.159-3.385,10.724a10.633,10.633,0,0,1-7.411,2.566c-1.889,0-5.309-.107-7.91-2.459-1.817-1.638-3.171-4.276-3.171-9.441Z" transform="translate(-648.926 -857.63)" fill="#fff"/>
        <path id="Path_192" data-name="Path 192" d="M954.125,876.89c.072,2.779.535,3.706,1.247,3.955a5.653,5.653,0,0,0,1.852.249c.391,0,.605.072.605.286,0,.284-.321.356-.819.356-2.315,0-3.741-.107-4.418-.107-.321,0-2,.107-3.848.107-.463,0-.784-.035-.784-.356,0-.214.214-.286.57-.286a6.276,6.276,0,0,0,1.6-.179c.926-.286,1.068-1.319,1.1-4.418l.321-20.986c0-.712.107-1.212.463-1.212.391,0,.712.463,1.319,1.1.428.463,5.843,6.163,11.045,11.33,2.422,2.422,7.233,7.553,7.838,8.123h.179l-.356-16c-.035-2.173-.356-2.85-1.212-3.206a5.811,5.811,0,0,0-1.889-.214c-.428,0-.57-.107-.57-.321,0-.286.391-.321.926-.321,1.852,0,3.562.107,4.311.107.391,0,1.745-.107,3.492-.107.463,0,.819.035.819.321q0,.321-.642.321a3.872,3.872,0,0,0-1.068.107c-1,.286-1.282,1.033-1.319,3.029l-.391,22.482c0,.784-.142,1.1-.463,1.1-.391,0-.819-.391-1.212-.784-2.245-2.138-6.805-6.805-10.51-10.475-3.883-3.848-7.838-8.194-8.48-8.871h-.107Z" transform="translate(-857.681 -854.3)" fill="#fff"/>
        <path id="Path_193" data-name="Path 193" d="M1210.5,878.368a14.109,14.109,0,0,1-.249-20.272c2.566-2.352,5.949-3.776,11.258-3.776a35.2,35.2,0,0,1,5.166.356c1.354.179,2.494.5,3.562.605.391.035.535.214.535.428,0,.286-.107.712-.179,1.959-.072,1.175-.035,3.136-.107,3.848-.035.535-.107.819-.428.819-.286,0-.356-.284-.356-.784a5.081,5.081,0,0,0-1.389-3.278c-1.175-1.247-3.955-2.208-7.233-2.208-3.1,0-5.13.784-6.7,2.208-2.6,2.387-3.278,5.772-3.278,9.227,0,8.479,6.449,12.684,11.223,12.684,3.171,0,5.1-.356,6.52-2a5.967,5.967,0,0,0,1.212-2.352c.107-.57.179-.712.463-.712.249,0,.321.249.321.535a33.909,33.909,0,0,1-.784,4.739,1.26,1.26,0,0,1-.926,1.033,20.641,20.641,0,0,1-6.413.819C1217.837,882.252,1213.74,881.182,1210.5,878.368Z" transform="translate(-1082.131 -854.317)" fill="#fff"/>
        <path id="Path_194" data-name="Path 194" d="M1430.359,866.567c0-5.416,0-6.413-.072-7.553-.072-1.212-.356-1.782-1.533-2.031a7.278,7.278,0,0,0-1.389-.107c-.391,0-.605-.072-.605-.321s.249-.321.784-.321c.963,0,1.994.035,2.885.035.926.035,1.745.072,2.245.072,1.14,0,8.229,0,8.906-.035a14.145,14.145,0,0,0,1.531-.214,3.375,3.375,0,0,1,.57-.142c.179,0,.214.142.214.321a22.487,22.487,0,0,0-.284,2.315c-.035.356-.107,1.924-.179,2.352-.035.179-.107.391-.356.391s-.321-.179-.321-.5a3.8,3.8,0,0,0-.214-1.282c-.249-.642-.605-1.068-2.387-1.282-.605-.072-4.346-.142-5.058-.142-.179,0-.249.107-.249.356v9.013c0,.249.035.391.249.391.784,0,4.881,0,5.7-.072a2.492,2.492,0,0,0,1.71-.535c.249-.284.391-.463.57-.463.142,0,.249.072.249.286s-.142.784-.286,2.6c-.035.712-.142,2.138-.142,2.387,0,.284,0,.677-.321.677a.283.283,0,0,1-.321-.321,9.29,9.29,0,0,0-.142-1.282c-.179-.712-.677-1.247-1.994-1.389-.677-.072-4.2-.107-5.06-.107-.179,0-.214.142-.214.356v2.815c0,1.212-.035,4.49,0,5.523.072,2.459.642,2.992,4.276,2.992a9.03,9.03,0,0,0,3.348-.428c.926-.428,1.354-1.175,1.6-2.636.072-.391.142-.535.391-.535.284,0,.284.286.284.642a27.878,27.878,0,0,1-.463,3.955c-.249.926-.57.926-1.924.926-2.673,0-4.632-.072-6.163-.107-1.533-.072-2.636-.107-3.706-.107-.391,0-1.175,0-2.031.035-.819,0-1.745.072-2.459.072-.463,0-.712-.107-.712-.356,0-.179.142-.286.57-.286a5.846,5.846,0,0,0,1.282-.142c.712-.142.891-.926,1.033-1.959.179-1.5.179-4.311.179-7.589v-6.272Z" transform="translate(-1274.025 -855.735)" fill="#fff"/>
        <path id="Path_195" data-name="Path 195" d="M1608.877,874.734c0,4.56,0,7.019.749,7.66.605.535,1.533.784,4.311.784,1.889,0,3.278-.035,4.169-1a4.471,4.471,0,0,0,.926-2.138c.035-.321.107-.535.391-.535.249,0,.286.179.286.605a28.046,28.046,0,0,1-.535,4.1c-.214.784-.391.963-2.245.963-2.566,0-4.418-.072-6.021-.107-1.6-.072-2.885-.107-4.346-.107-.391,0-1.175,0-2.031.035-.819,0-1.745.072-2.459.072-.463,0-.712-.107-.712-.356,0-.179.142-.286.57-.286a5.858,5.858,0,0,0,1.282-.142c.712-.142.891-.926,1.033-1.959.179-1.5.179-4.311.179-7.589v-6.27c0-5.416,0-6.413-.072-7.553-.072-1.212-.356-1.782-1.531-2.031a5.256,5.256,0,0,0-1.175-.107c-.391,0-.605-.072-.605-.321s.249-.321.784-.321c1.675,0,3.919.107,4.881.107.854,0,3.455-.107,4.846-.107.5,0,.749.072.749.321s-.214.321-.642.321a9.419,9.419,0,0,0-1.389.107c-.963.179-1.247.784-1.319,2.031-.072,1.14-.072,2.138-.072,7.553v6.272Z" transform="translate(-1425.571 -857.631)" fill="#fff"/>
      </g>
    </g>
    <g id="Group_187" data-name="Group 187" transform="translate(290.007 888.287)">
      <path id="Path_196" data-name="Path 196" d="M518.4,1116.167q0,.685,0,1.3c0,.414,0,.8,0,1.153a.385.385,0,0,1-.026.139.325.325,0,0,1-.076.115.372.372,0,0,1-.115.078.357.357,0,0,1-.146.029.362.362,0,0,1-.142-.027.333.333,0,0,1-.114-.077.361.361,0,0,1-.1-.257V1116.2c0-.274,0-.535,0-.777a.385.385,0,0,0-.017-.119.377.377,0,0,1-.017-.119.181.181,0,0,1,.009-.061.1.1,0,0,1,.036-.047.225.225,0,0,1,.077-.031.694.694,0,0,1,.132-.01l.15,0a.525.525,0,0,1,.108.016.33.33,0,0,1,.087.038.432.432,0,0,1,.082.072l1.271,1.552.451-.552c.126-.155.235-.288.323-.4l.218-.274c.056-.072.1-.129.133-.174s.056-.077.07-.1.026-.038.034-.047a.539.539,0,0,1,.04-.053.172.172,0,0,1,.057-.044.348.348,0,0,1,.086-.027.713.713,0,0,1,.128-.009.358.358,0,0,1,.228.063.342.342,0,0,1,.112.164.788.788,0,0,1,.035.232c0,.087,0,.175,0,.262v2.862a.386.386,0,0,1-.026.14.342.342,0,0,1-.073.115.356.356,0,0,1-.115.078.363.363,0,0,1-.147.029.339.339,0,0,1-.119-.022.377.377,0,0,1-.116-.065.344.344,0,0,1-.087-.112.369.369,0,0,1-.034-.163v-2.451l-.9,1.153a1.155,1.155,0,0,1-.141.146.229.229,0,0,1-.154.06.232.232,0,0,1-.154-.053,1.554,1.554,0,0,1-.145-.151Z" transform="translate(-517.64 -1115.016)" fill="#fff"/>
      <path id="Path_197" data-name="Path 197" d="M554.661,1115.05a.287.287,0,0,1,.141.034.408.408,0,0,1,.108.087.638.638,0,0,1,.084.121c.023.044.046.091.066.138l1.23,3.071a.268.268,0,0,1,.021.072.489.489,0,0,1,.007.072.322.322,0,0,1-.038.151.3.3,0,0,1-.108.115.335.335,0,0,1-.316.069.408.408,0,0,1-.147-.081.361.361,0,0,1-.1-.15l-.22-.552h-1.43l-.227.556a.413.413,0,0,1-.154.2.395.395,0,0,1-.365.013.335.335,0,0,1-.113-.1.343.343,0,0,1-.064-.14.368.368,0,0,1,0-.168c.016-.051.034-.1.052-.149l.055-.146,1.144-2.862a.3.3,0,0,0,.02-.08c0-.026.007-.054.01-.08a.371.371,0,0,1,.027-.076.173.173,0,0,1,.055-.061.307.307,0,0,1,.1-.042A.692.692,0,0,1,554.661,1115.05Zm-.549,2.567h1.117l-.558-1.426Z" transform="translate(-548.409 -1115.024)" fill="#fff"/>
      <path id="Path_198" data-name="Path 198" d="M583.927,1116.2a.4.4,0,0,1-.081,0,.278.278,0,0,1-.077-.02.386.386,0,0,1-.078-.043.858.858,0,0,1-.086-.071,1.367,1.367,0,0,0-.293-.237.618.618,0,0,0-.321-.081.71.71,0,0,0-.19.027.64.64,0,0,0-.176.078.431.431,0,0,0-.129.128.3.3,0,0,0-.051.172.289.289,0,0,0,.083.2.9.9,0,0,0,.22.168,3.374,3.374,0,0,0,.313.155q.174.076.356.16t.356.184a1.744,1.744,0,0,1,.313.227,1,1,0,0,1,.22.29.821.821,0,0,1,.082.374.942.942,0,0,1-.125.486,1.151,1.151,0,0,1-.329.359,1.548,1.548,0,0,1-.455.223,1.719,1.719,0,0,1-.511.077,1.875,1.875,0,0,1-.547-.073,1.413,1.413,0,0,1-.4-.192,1.008,1.008,0,0,1-.26-.262.813.813,0,0,1-.125-.286.391.391,0,0,1,.006-.141.345.345,0,0,1,.054-.12.286.286,0,0,1,.1-.085.294.294,0,0,1,.143-.033.337.337,0,0,1,.158.042.828.828,0,0,1,.16.115.582.582,0,0,0,.116.133.914.914,0,0,0,.167.112,1.014,1.014,0,0,0,.2.078.859.859,0,0,0,.226.029.915.915,0,0,0,.228-.029.758.758,0,0,0,.209-.086.512.512,0,0,0,.154-.141.325.325,0,0,0,.06-.194.29.29,0,0,0-.081-.2.94.94,0,0,0-.211-.164,2.553,2.553,0,0,0-.3-.147c-.112-.047-.227-.1-.346-.151s-.232-.113-.346-.177a1.442,1.442,0,0,1-.3-.224,1.079,1.079,0,0,1-.211-.291.837.837,0,0,1-.081-.378.977.977,0,0,1,.367-.776,1.285,1.285,0,0,1,.41-.219,1.628,1.628,0,0,1,.515-.078,1.4,1.4,0,0,1,.282.03,1.763,1.763,0,0,1,.282.086,1.646,1.646,0,0,1,.258.129,1.289,1.289,0,0,1,.211.16.729.729,0,0,1,.143.182.388.388,0,0,1,.052.191.335.335,0,0,1-.027.146.259.259,0,0,1-.073.093.3.3,0,0,1-.108.051A.815.815,0,0,1,583.927,1116.2Z" transform="translate(-573.285 -1115.084)" fill="#fff"/>
      <path id="Path_199" data-name="Path 199" d="M610.487,1115.42a.347.347,0,0,1-.029.145.366.366,0,0,1-.08.113.356.356,0,0,1-.12.076.424.424,0,0,1-.149.026h-.9l-.009,2.862a.388.388,0,0,1-.026.142.358.358,0,0,1-.072.115.323.323,0,0,1-.112.077.367.367,0,0,1-.142.027.377.377,0,0,1-.146-.027.322.322,0,0,1-.112-.077.356.356,0,0,1-.072-.115.391.391,0,0,1-.026-.142l-.007-2.862h-.914a.417.417,0,0,1-.147-.026.332.332,0,0,1-.116-.073.352.352,0,0,1-.078-.113.378.378,0,0,1,0-.286.351.351,0,0,1,.077-.115.365.365,0,0,1,.119-.078.373.373,0,0,1,.149-.029h2.537a.429.429,0,0,1,.147.026.354.354,0,0,1,.121.073.346.346,0,0,1,.081.115A.358.358,0,0,1,610.487,1115.42Z" transform="translate(-595.518 -1115.033)" fill="#fff"/>
      <path id="Path_200" data-name="Path 200" d="M641.228,1118.615a.347.347,0,0,1-.031.148.354.354,0,0,1-.082.115.376.376,0,0,1-.123.073.44.44,0,0,1-.15.026h-2.058a.387.387,0,0,1-.3-.115.429.429,0,0,1-.107-.305v-3.12a.784.784,0,0,0-.02-.128.5.5,0,0,1-.017-.128.141.141,0,0,1,.046-.108.29.29,0,0,1,.184-.042h2.283a.375.375,0,0,1,.2.051.328.328,0,0,1,.123.128.359.359,0,0,1,0,.334.329.329,0,0,1-.12.128.372.372,0,0,1-.2.051H639.1v.944h1.365a.347.347,0,0,1,.156.038.364.364,0,0,1,.121.1.333.333,0,0,1,.064.141.293.293,0,0,1-.014.166.322.322,0,0,1-.123.167.352.352,0,0,1-.2.06H639.1v.914h1.739a.446.446,0,0,1,.151.025.387.387,0,0,1,.125.071.35.35,0,0,1,.085.113A.366.366,0,0,1,641.228,1118.615Z" transform="translate(-622.595 -1115.007)" fill="#fff"/>
      <path id="Path_201" data-name="Path 201" d="M669.671,1116.371a1.314,1.314,0,0,1-.128.579,1.439,1.439,0,0,1-.342.455,1.6,1.6,0,0,1-.5.3,1.692,1.692,0,0,1-.6.107h-.617v.672a.362.362,0,0,1-.027.142.357.357,0,0,1-.192.192.368.368,0,0,1-.142.027.362.362,0,0,1-.142-.027.329.329,0,0,1-.114-.077.364.364,0,0,1-.1-.257v-3.22a.654.654,0,0,0-.018-.122.455.455,0,0,1-.016-.115.185.185,0,0,1,.01-.062.093.093,0,0,1,.038-.046.224.224,0,0,1,.077-.029.645.645,0,0,1,.125-.01H668.1a1.621,1.621,0,0,1,1.1.429,1.507,1.507,0,0,1,.342.472A1.347,1.347,0,0,1,669.671,1116.371Zm-.708.018a.812.812,0,0,0-.068-.333.869.869,0,0,0-.459-.455.843.843,0,0,0-.334-.068h-.629v1.65h.629a.942.942,0,0,0,.334-.057.843.843,0,0,0,.274-.16.737.737,0,0,0,.185-.25A.752.752,0,0,0,668.963,1116.389Zm-.089.872.727,1.019a.324.324,0,0,1,.064.122.364.364,0,0,1,.01.133.344.344,0,0,1-.043.129.349.349,0,0,1-.1.108.359.359,0,0,1-.128.063.323.323,0,0,1-.133.008.346.346,0,0,1-.128-.044.36.36,0,0,1-.106-.094l-.779-1.189Z" transform="translate(-647.282 -1114.876)" fill="#fff"/>
      <path id="Path_202" data-name="Path 202" d="M711.555,1118.424a.378.378,0,0,1-.1.264.327.327,0,0,1-.107.076.339.339,0,0,1-.132.026h-2.024a.448.448,0,0,1-.163-.037.425.425,0,0,1-.128-.089.4.4,0,0,1-.085-.132.434.434,0,0,1-.031-.166v-3.135a.656.656,0,0,0-.018-.121.457.457,0,0,1-.016-.115.184.184,0,0,1,.01-.061.092.092,0,0,1,.038-.046.227.227,0,0,1,.077-.029.635.635,0,0,1,.125-.01.967.967,0,0,1,.2.02.4.4,0,0,1,.158.068.323.323,0,0,1,.1.132.509.509,0,0,1,.038.212v2.785h1.687a.367.367,0,0,1,.133.026.346.346,0,0,1,.116.073.341.341,0,0,1,.081.114A.286.286,0,0,1,711.555,1118.424Z" transform="translate(-683.821 -1114.85)" fill="#fff"/>
      <path id="Path_203" data-name="Path 203" d="M735.591,1115.05a.287.287,0,0,1,.141.034.409.409,0,0,1,.108.087.641.641,0,0,1,.083.121c.024.044.046.091.067.138l1.23,3.071a.266.266,0,0,1,.021.072.49.49,0,0,1,.007.072.32.32,0,0,1-.038.151.3.3,0,0,1-.108.115.336.336,0,0,1-.316.069.409.409,0,0,1-.147-.081.36.36,0,0,1-.1-.15l-.22-.552h-1.43l-.227.556a.412.412,0,0,1-.154.2.395.395,0,0,1-.365.013.337.337,0,0,1-.114-.1.342.342,0,0,1-.064-.14.369.369,0,0,1,0-.168c.016-.051.034-.1.052-.149l.055-.146,1.144-2.862a.3.3,0,0,0,.02-.08c0-.026.006-.054.01-.08a.361.361,0,0,1,.027-.076.173.173,0,0,1,.055-.061.307.307,0,0,1,.1-.042A.683.683,0,0,1,735.591,1115.05Zm-.549,2.567h1.117l-.558-1.426Z" transform="translate(-705.738 -1115.024)" fill="#fff"/>
      <path id="Path_204" data-name="Path 204" d="M759.325,1115.464a.359.359,0,0,1,0-.275.375.375,0,0,1,.078-.115.351.351,0,0,1,.121-.078.362.362,0,0,1,.142-.026.4.4,0,0,1,.137.027.336.336,0,0,1,.115.077.323.323,0,0,1,.076.121l1.117,3.159.123.073a.364.364,0,0,1,.026.142.351.351,0,0,1-.031.137.39.39,0,0,1-.081.115.367.367,0,0,1-.4.077.361.361,0,0,1-.193-.2Zm1.918,3.234a.351.351,0,0,1-.192.2.36.36,0,0,1-.278,0,.349.349,0,0,1-.121-.078.36.36,0,0,1-.078-.115.372.372,0,0,1-.03-.137.339.339,0,0,1,.025-.142l.125-.073.783-2.19a.281.281,0,0,1,.066-.106.333.333,0,0,1,.1-.069.314.314,0,0,1,.121-.026.3.3,0,0,1,.125.023.236.236,0,0,1,.1.071.249.249,0,0,1,.051.1.331.331,0,0,1,.006.12.581.581,0,0,1-.029.125Zm.288-2.3a.469.469,0,0,1-.033-.124.333.333,0,0,1,.007-.12.251.251,0,0,1,.051-.1.26.26,0,0,1,.1-.072.321.321,0,0,1,.125-.023.3.3,0,0,1,.121.026.314.314,0,0,1,.1.069.279.279,0,0,1,.067.106l.8,2.193.123.073a.365.365,0,0,1,.026.142.379.379,0,0,1-.03.137.386.386,0,0,1-.081.115.368.368,0,0,1-.12.078.357.357,0,0,1-.276,0,.361.361,0,0,1-.193-.2Zm1.471,2.3a.351.351,0,0,1-.192.2.36.36,0,0,1-.278,0,.349.349,0,0,1-.121-.078.389.389,0,0,1-.08-.115.349.349,0,0,1-.031-.137.363.363,0,0,1,.026-.142l.125-.073,1.117-3.159a.226.226,0,0,1,.089-.125.338.338,0,0,1,.144-.059.279.279,0,0,1,.112-.034.271.271,0,0,1,.124.018.348.348,0,0,1,.121.078.359.359,0,0,1,.078.115.339.339,0,0,1,.029.134.357.357,0,0,1-.026.141Z" transform="translate(-727.776 -1114.954)" fill="#fff"/>
      <path id="Path_205" data-name="Path 205" d="M814.355,1115.464a.36.36,0,0,1,0-.275.373.373,0,0,1,.078-.115.349.349,0,0,1,.121-.078.362.362,0,0,1,.142-.026.4.4,0,0,1,.137.027.336.336,0,0,1,.115.077.323.323,0,0,1,.076.121l1.117,3.159.123.073a.368.368,0,0,1,.026.142.354.354,0,0,1-.031.137.391.391,0,0,1-.081.115.367.367,0,0,1-.4.077.361.361,0,0,1-.193-.2Zm1.916,3.234a.351.351,0,0,1-.192.2.36.36,0,0,1-.278,0,.348.348,0,0,1-.121-.078.358.358,0,0,1-.078-.115.372.372,0,0,1-.03-.137.338.338,0,0,1,.025-.142l.125-.073.783-2.19a.281.281,0,0,1,.067-.106.332.332,0,0,1,.1-.069.314.314,0,0,1,.121-.026.3.3,0,0,1,.125.023.237.237,0,0,1,.1.071.252.252,0,0,1,.051.1.332.332,0,0,1,.006.12.585.585,0,0,1-.029.125Zm.288-2.3a.474.474,0,0,1-.033-.124.335.335,0,0,1,.006-.12.25.25,0,0,1,.051-.1.26.26,0,0,1,.1-.072.321.321,0,0,1,.125-.023.3.3,0,0,1,.121.026.313.313,0,0,1,.1.069.279.279,0,0,1,.067.106l.8,2.193.123.073a.361.361,0,0,1,.026.142.379.379,0,0,1-.03.137.387.387,0,0,1-.081.115.367.367,0,0,1-.12.078.356.356,0,0,1-.47-.2Zm1.473,2.3a.351.351,0,0,1-.192.2.36.36,0,0,1-.278,0,.35.35,0,0,1-.121-.078.39.39,0,0,1-.08-.115.355.355,0,0,1-.031-.137.365.365,0,0,1,.026-.142l.125-.073,1.117-3.159a.224.224,0,0,1,.089-.125.338.338,0,0,1,.143-.059.279.279,0,0,1,.112-.034.271.271,0,0,1,.124.018.347.347,0,0,1,.121.078.357.357,0,0,1,.078.115.338.338,0,0,1,.029.134.358.358,0,0,1-.026.141Z" transform="translate(-775.628 -1114.954)" fill="#fff"/>
      <path id="Path_206" data-name="Path 206" d="M859.114,1118.638a.392.392,0,0,1-.026.141.41.41,0,0,1-.072.12.323.323,0,0,1-.113.082.355.355,0,0,1-.15.031.332.332,0,0,1-.15-.033.323.323,0,0,1-.113-.086.381.381,0,0,1-.07-.12.409.409,0,0,1-.025-.137v-3.184a.658.658,0,0,0-.018-.121.456.456,0,0,1-.016-.115.184.184,0,0,1,.01-.061.091.091,0,0,1,.038-.046.225.225,0,0,1,.077-.029.646.646,0,0,1,.125-.01,1.105,1.105,0,0,1,.193.016.454.454,0,0,1,.157.056.306.306,0,0,1,.107.112.417.417,0,0,1,.046.181v3.2Z" transform="translate(-813.916 -1115.041)" fill="#fff"/>
      <path id="Path_207" data-name="Path 207" d="M873.407,1115.42a.347.347,0,0,1-.029.145.365.365,0,0,1-.08.113.356.356,0,0,1-.12.076.424.424,0,0,1-.149.026h-.9l-.009,2.862a.388.388,0,0,1-.026.142.356.356,0,0,1-.072.115.324.324,0,0,1-.112.077.367.367,0,0,1-.142.027.377.377,0,0,1-.146-.027.323.323,0,0,1-.112-.077.358.358,0,0,1-.072-.115.39.39,0,0,1-.026-.142l-.007-2.862h-.914a.417.417,0,0,1-.147-.026.332.332,0,0,1-.116-.073.353.353,0,0,1-.107-.26.36.36,0,0,1,.027-.14.349.349,0,0,1,.077-.115.363.363,0,0,1,.119-.078.372.372,0,0,1,.149-.029h2.537a.43.43,0,0,1,.147.026.353.353,0,0,1,.121.073.345.345,0,0,1,.081.115A.358.358,0,0,1,873.407,1115.42Z" transform="translate(-824.142 -1115.033)" fill="#fff"/>
      <path id="Path_208" data-name="Path 208" d="M904.55,1118.605a.4.4,0,0,1-.027.149.387.387,0,0,1-.076.121.326.326,0,0,1-.115.081.359.359,0,0,1-.145.029.336.336,0,0,1-.146-.031.361.361,0,0,1-.114-.082.385.385,0,0,1-.073-.121.415.415,0,0,1-.026-.146v-1.187H902v1.187a.426.426,0,0,1-.026.146.391.391,0,0,1-.072.121.325.325,0,0,1-.113.082.354.354,0,0,1-.15.031.344.344,0,0,1-.149-.031.33.33,0,0,1-.113-.085.378.378,0,0,1-.072-.123.442.442,0,0,1-.025-.142v-3.181a.651.651,0,0,0-.018-.121.46.46,0,0,1-.016-.115.184.184,0,0,1,.009-.061.092.092,0,0,1,.035-.046.206.206,0,0,1,.073-.029.622.622,0,0,1,.124-.01,1.128,1.128,0,0,1,.207.018.474.474,0,0,1,.161.06.292.292,0,0,1,.106.112.352.352,0,0,1,.038.172v1.291h1.825v-1.271a.665.665,0,0,0-.018-.121.454.454,0,0,1-.016-.115.185.185,0,0,1,.01-.061.091.091,0,0,1,.038-.046.224.224,0,0,1,.077-.029.645.645,0,0,1,.125-.01,1.112,1.112,0,0,1,.189.016.478.478,0,0,1,.161.056.3.3,0,0,1,.112.111.347.347,0,0,1,.042.18v3.2Z" transform="translate(-851.211 -1115.016)" fill="#fff"/>
      <path id="Path_209" data-name="Path 209" d="M948.135,1116.167q0,.685,0,1.3c0,.414,0,.8,0,1.153a.386.386,0,0,1-.026.139.325.325,0,0,1-.076.115.37.37,0,0,1-.115.078.356.356,0,0,1-.146.029.363.363,0,0,1-.142-.027.334.334,0,0,1-.114-.077.361.361,0,0,1-.1-.257V1116.2c0-.274,0-.535,0-.777a.385.385,0,0,0-.017-.119.375.375,0,0,1-.017-.119.181.181,0,0,1,.009-.061.1.1,0,0,1,.036-.047.225.225,0,0,1,.077-.031.694.694,0,0,1,.132-.01l.15,0a.525.525,0,0,1,.108.016.329.329,0,0,1,.087.038.433.433,0,0,1,.082.072l1.271,1.552.451-.552c.126-.155.235-.288.323-.4l.218-.274c.056-.072.1-.129.133-.174s.056-.077.07-.1.026-.038.034-.047a.558.558,0,0,1,.04-.053.174.174,0,0,1,.057-.044.347.347,0,0,1,.086-.027.712.712,0,0,1,.128-.009.358.358,0,0,1,.228.063.342.342,0,0,1,.112.164.784.784,0,0,1,.035.232c0,.087,0,.175,0,.262v2.862a.385.385,0,0,1-.026.14.34.34,0,0,1-.073.115.355.355,0,0,1-.115.078.363.363,0,0,1-.147.029.339.339,0,0,1-.119-.022.377.377,0,0,1-.116-.065.344.344,0,0,1-.087-.112.368.368,0,0,1-.034-.163v-2.451l-.9,1.153a1.151,1.151,0,0,1-.141.146.229.229,0,0,1-.154.06.232.232,0,0,1-.154-.053,1.569,1.569,0,0,1-.145-.151Z" transform="translate(-891.323 -1115.016)" fill="#fff"/>
      <path id="Path_210" data-name="Path 210" d="M987.748,1118.615a.348.348,0,0,1-.031.148.354.354,0,0,1-.082.115.376.376,0,0,1-.123.073.44.44,0,0,1-.15.026H985.3a.387.387,0,0,1-.3-.115.429.429,0,0,1-.107-.305v-3.12a.771.771,0,0,0-.02-.128.493.493,0,0,1-.017-.128.141.141,0,0,1,.046-.108.291.291,0,0,1,.184-.042h2.283a.375.375,0,0,1,.2.051.328.328,0,0,1,.123.128.36.36,0,0,1,0,.334.329.329,0,0,1-.12.128.372.372,0,0,1-.2.051h-1.757v.944h1.364a.346.346,0,0,1,.156.038.362.362,0,0,1,.121.1.331.331,0,0,1,.064.141.293.293,0,0,1-.014.166.321.321,0,0,1-.123.167.352.352,0,0,1-.2.06h-1.368v.914h1.739a.446.446,0,0,1,.151.025.389.389,0,0,1,.125.071.349.349,0,0,1,.085.113A.366.366,0,0,1,987.748,1118.615Z" transform="translate(-923.915 -1115.007)" fill="#fff"/>
      <path id="Path_211" data-name="Path 211" d="M1016.732,1118.6a.447.447,0,0,1-.025.151.351.351,0,0,1-.072.125.378.378,0,0,1-.114.086.335.335,0,0,1-.322-.018.631.631,0,0,1-.146-.121l-2.052-2.411v.538c0,.19,0,.382,0,.575s0,.385,0,.574v.535a.362.362,0,0,1-.027.142.357.357,0,0,1-.188.192.359.359,0,0,1-.141.027.345.345,0,0,1-.142-.029.35.35,0,0,1-.113-.077.343.343,0,0,1-.076-.114.359.359,0,0,1-.027-.14v-3.2a.594.594,0,0,0-.018-.119.452.452,0,0,1-.016-.121.175.175,0,0,1,.01-.059.091.091,0,0,1,.038-.046.226.226,0,0,1,.077-.029.659.659,0,0,1,.125-.01,1.177,1.177,0,0,1,.146.008.483.483,0,0,1,.115.027.389.389,0,0,1,.1.053.69.69,0,0,1,.1.086l2.052,2.42,0-2.2a.485.485,0,0,0-.016-.128.441.441,0,0,1-.016-.119.209.209,0,0,1,.009-.068.086.086,0,0,1,.043-.046.292.292,0,0,1,.1-.026,1.387,1.387,0,0,1,.168-.008.863.863,0,0,1,.18.017.345.345,0,0,1,.138.06.285.285,0,0,1,.089.114.409.409,0,0,1,.033.175v3.183Z" transform="translate(-948.601 -1115.024)" fill="#fff"/>
      <path id="Path_212" data-name="Path 212" d="M1047.583,1115.05a.287.287,0,0,1,.141.034.41.41,0,0,1,.108.087.585.585,0,0,1,.082.121c.023.044.046.091.066.138l1.23,3.071a.27.27,0,0,1,.021.072.489.489,0,0,1,.006.072.32.32,0,0,1-.038.151.3.3,0,0,1-.108.115.336.336,0,0,1-.316.069.409.409,0,0,1-.147-.081.361.361,0,0,1-.1-.15l-.22-.552h-1.43l-.227.556a.412.412,0,0,1-.154.2.395.395,0,0,1-.365.013.343.343,0,0,1-.177-.235.369.369,0,0,1,0-.168c.016-.051.034-.1.052-.149s.037-.1.055-.146l1.144-2.862a.3.3,0,0,0,.02-.08c0-.026.006-.054.01-.08a.361.361,0,0,1,.027-.076.173.173,0,0,1,.055-.061.306.306,0,0,1,.1-.042A.694.694,0,0,1,1047.583,1115.05Zm-.549,2.567h1.116l-.558-1.426Z" transform="translate(-977.031 -1115.024)" fill="#fff"/>
      <path id="Path_213" data-name="Path 213" d="M1076.371,1115.12a.387.387,0,0,1,.244.081.347.347,0,0,1,.13.2.4.4,0,0,1-.022.252.836.836,0,0,1-.151.245.9.9,0,0,1-.226.186.491.491,0,0,1-.245.073.266.266,0,0,1-.185-.054.218.218,0,0,1-.056-.167,1.109,1.109,0,0,1,.032-.247,1.17,1.17,0,0,1,.1-.269.816.816,0,0,1,.161-.215A.317.317,0,0,1,1076.371,1115.12Z" transform="translate(-1003.044 -1115.085)" fill="#fff"/>
      <path id="Path_214" data-name="Path 214" d="M1089.758,1116.2a.4.4,0,0,1-.081,0,.288.288,0,0,1-.077-.02.386.386,0,0,1-.078-.043.858.858,0,0,1-.086-.071,1.364,1.364,0,0,0-.293-.237.618.618,0,0,0-.321-.081.713.713,0,0,0-.19.027.64.64,0,0,0-.176.078.43.43,0,0,0-.129.128.3.3,0,0,0-.051.172.293.293,0,0,0,.082.2.9.9,0,0,0,.22.168,3.329,3.329,0,0,0,.313.155q.174.076.356.16t.356.184a1.75,1.75,0,0,1,.313.227,1.006,1.006,0,0,1,.22.29.821.821,0,0,1,.082.374.941.941,0,0,1-.125.486,1.15,1.15,0,0,1-.329.359,1.565,1.565,0,0,1-.455.223,1.761,1.761,0,0,1-.511.077,1.875,1.875,0,0,1-.547-.073,1.374,1.374,0,0,1-.4-.192,1,1,0,0,1-.26-.262.813.813,0,0,1-.125-.286.391.391,0,0,1,.007-.141.347.347,0,0,1,.053-.12.3.3,0,0,1,.1-.085.3.3,0,0,1,.145-.033.336.336,0,0,1,.158.042.821.821,0,0,1,.161.115.582.582,0,0,0,.116.133.872.872,0,0,0,.167.112,1.021,1.021,0,0,0,.2.078.861.861,0,0,0,.226.029.916.916,0,0,0,.228-.029.758.758,0,0,0,.209-.086.512.512,0,0,0,.154-.141.323.323,0,0,0,.06-.194.289.289,0,0,0-.081-.2.937.937,0,0,0-.211-.164,2.553,2.553,0,0,0-.3-.147c-.112-.047-.227-.1-.346-.151s-.232-.113-.346-.177a1.407,1.407,0,0,1-.3-.224,1.054,1.054,0,0,1-.211-.291.837.837,0,0,1-.081-.378.977.977,0,0,1,.366-.776,1.281,1.281,0,0,1,.41-.219,1.626,1.626,0,0,1,.515-.078,1.4,1.4,0,0,1,.282.03,1.754,1.754,0,0,1,.282.086,1.7,1.7,0,0,1,.258.129,1.289,1.289,0,0,1,.211.16.774.774,0,0,1,.145.182.39.39,0,0,1,.052.191.335.335,0,0,1-.027.146.262.262,0,0,1-.073.093.3.3,0,0,1-.108.051A.845.845,0,0,1,1089.758,1116.2Z" transform="translate(-1013.134 -1115.084)" fill="#fff"/>
      <path id="Path_215" data-name="Path 215" d="M1129.467,1115.42a.349.349,0,0,1-.029.145.371.371,0,0,1-.08.113.358.358,0,0,1-.12.076.423.423,0,0,1-.149.026h-.9l-.009,2.862a.389.389,0,0,1-.026.142.357.357,0,0,1-.072.115.324.324,0,0,1-.112.077.368.368,0,0,1-.142.027.377.377,0,0,1-.146-.027.324.324,0,0,1-.112-.077.335.335,0,0,1-.072-.115.392.392,0,0,1-.026-.142l-.006-2.862h-.915a.416.416,0,0,1-.147-.026.331.331,0,0,1-.116-.073.369.369,0,0,1-.079-.4.352.352,0,0,1,.077-.115.366.366,0,0,1,.119-.078.372.372,0,0,1,.149-.029h2.537a.428.428,0,0,1,.147.026.352.352,0,0,1,.121.073.344.344,0,0,1,.081.115A.378.378,0,0,1,1129.467,1115.42Z" transform="translate(-1046.801 -1115.033)" fill="#fff"/>
      <path id="Path_216" data-name="Path 216" d="M1153.4,1117.04a1.923,1.923,0,0,1,.071-.522,1.952,1.952,0,0,1,.2-.471,2.03,2.03,0,0,1,.308-.4,1.9,1.9,0,0,1,.4-.308,1.95,1.95,0,0,1,1-.27,1.933,1.933,0,0,1,.522.07,1.963,1.963,0,0,1,.471.2,2.046,2.046,0,0,1,.4.308,1.906,1.906,0,0,1,.308.4,2,2,0,0,1,.2.471,1.975,1.975,0,0,1,0,1.046,1.955,1.955,0,0,1-.2.471,2.036,2.036,0,0,1-.308.4,1.912,1.912,0,0,1-.4.308,1.958,1.958,0,0,1-.471.2,1.971,1.971,0,0,1-1.289-.085,1.98,1.98,0,0,1-.627-.424,2.013,2.013,0,0,1-.424-.627A1.936,1.936,0,0,1,1153.4,1117.04Zm.724.005a1.221,1.221,0,0,0,.1.486,1.267,1.267,0,0,0,.664.672,1.2,1.2,0,0,0,.487.1,1.184,1.184,0,0,0,.484-.1,1.278,1.278,0,0,0,.4-.272,1.3,1.3,0,0,0,.269-.4,1.234,1.234,0,0,0,.1-.488,1.213,1.213,0,0,0-.1-.485,1.29,1.29,0,0,0-.269-.4,1.275,1.275,0,0,0-.4-.271,1.192,1.192,0,0,0-.484-.1,1.205,1.205,0,0,0-.487.1,1.242,1.242,0,0,0-.4.273,1.327,1.327,0,0,0-.267.4A1.232,1.232,0,0,0,1154.124,1117.045Z" transform="translate(-1070.47 -1115.041)" fill="#fff"/>
      <path id="Path_217" data-name="Path 217" d="M1193.242,1116.371a1.315,1.315,0,0,1-.128.579,1.459,1.459,0,0,1-.342.455,1.6,1.6,0,0,1-.5.3,1.7,1.7,0,0,1-.6.107h-.617v.672a.361.361,0,0,1-.027.142.356.356,0,0,1-.192.192.367.367,0,0,1-.142.027.361.361,0,0,1-.142-.027.328.328,0,0,1-.114-.077.39.39,0,0,1-.076-.115.367.367,0,0,1-.027-.142v-3.22a.664.664,0,0,0-.018-.122.453.453,0,0,1-.016-.115.185.185,0,0,1,.01-.062.092.092,0,0,1,.038-.046.222.222,0,0,1,.077-.029.645.645,0,0,1,.125-.01h1.119a1.621,1.621,0,0,1,1.1.429,1.5,1.5,0,0,1,.342.472A1.366,1.366,0,0,1,1193.242,1116.371Zm-.708.018a.812.812,0,0,0-.068-.333.868.868,0,0,0-.459-.455.839.839,0,0,0-.334-.068h-.629v1.65h.629a.942.942,0,0,0,.334-.057.844.844,0,0,0,.274-.16.737.737,0,0,0,.185-.25A.774.774,0,0,0,1192.533,1116.389Z" transform="translate(-1102.557 -1114.876)" fill="#fff"/>
      <path id="Path_218" data-name="Path 218" d="M1233.53,1116.2a1.493,1.493,0,0,0-.4-.3,1.112,1.112,0,0,0-.5-.111,1.2,1.2,0,0,0-.487.1,1.236,1.236,0,0,0-.4.272,1.326,1.326,0,0,0-.267.4,1.258,1.258,0,0,0,0,.973,1.273,1.273,0,0,0,.665.672,1.192,1.192,0,0,0,.485.1,1.144,1.144,0,0,0,.3-.038,1.193,1.193,0,0,0,.256-.106,1.534,1.534,0,0,0,.227-.155c.072-.059.145-.12.218-.185a.449.449,0,0,1,.1-.044.344.344,0,0,1,.109-.017.363.363,0,0,1,.107.016.285.285,0,0,1,.1.052.319.319,0,0,1,.107.114.311.311,0,0,1,.041.154.4.4,0,0,1-.026.138.349.349,0,0,1-.085.125,2.6,2.6,0,0,1-.308.3,1.545,1.545,0,0,1-.329.2,1.635,1.635,0,0,1-.373.119,2.306,2.306,0,0,1-.442.038,1.924,1.924,0,0,1-.767-.155,1.981,1.981,0,0,1-.627-.424,2.008,2.008,0,0,1-.424-.628,1.97,1.97,0,0,1-.085-1.289,1.955,1.955,0,0,1,.2-.471,2.027,2.027,0,0,1,.308-.4,1.907,1.907,0,0,1,.4-.308,1.961,1.961,0,0,1,.471-.2,1.935,1.935,0,0,1,.524-.071,2.323,2.323,0,0,1,.4.033,1.584,1.584,0,0,1,.359.1,1.6,1.6,0,0,1,.329.189,2.356,2.356,0,0,1,.312.282.4.4,0,0,1,.107.261.308.308,0,0,1-.026.138.327.327,0,0,1-.09.123.359.359,0,0,1-.1.064.326.326,0,0,1-.119.027.365.365,0,0,1-.132-.02A.414.414,0,0,1,1233.53,1116.2Z" transform="translate(-1137.643 -1115.05)" fill="#fff"/>
      <path id="Path_219" data-name="Path 219" d="M1261.45,1117.04a1.928,1.928,0,0,1,.071-.522,1.957,1.957,0,0,1,.2-.471,2.036,2.036,0,0,1,.308-.4,1.906,1.906,0,0,1,.4-.308,1.962,1.962,0,0,1,.471-.2,1.981,1.981,0,0,1,1.046,0,1.963,1.963,0,0,1,.471.2,2.046,2.046,0,0,1,.4.308,1.993,1.993,0,0,1,.308.4,1.952,1.952,0,0,1,.2.471,1.978,1.978,0,0,1,0,1.046,1.956,1.956,0,0,1-.2.471,2.036,2.036,0,0,1-.308.4,1.948,1.948,0,0,1-.4.308,2.018,2.018,0,0,1-.471.2,1.971,1.971,0,0,1-1.289-.085,1.981,1.981,0,0,1-.627-.424,2.027,2.027,0,0,1-.424-.627A1.936,1.936,0,0,1,1261.45,1117.04Zm.724.005a1.221,1.221,0,0,0,.1.486,1.271,1.271,0,0,0,.267.4,1.257,1.257,0,0,0,.4.271,1.238,1.238,0,0,0,.972,0,1.275,1.275,0,0,0,.4-.272,1.293,1.293,0,0,0,.269-.4,1.228,1.228,0,0,0,.1-.488,1.211,1.211,0,0,0-.1-.485,1.288,1.288,0,0,0-.269-.4,1.27,1.27,0,0,0-.4-.271,1.241,1.241,0,0,0-.972,0,1.263,1.263,0,0,0-.4.273,1.3,1.3,0,0,0-.267.4A1.255,1.255,0,0,0,1262.174,1117.045Z" transform="translate(-1164.425 -1115.041)" fill="#fff"/>
      <path id="Path_220" data-name="Path 220" d="M1297.234,1115.462a.648.648,0,0,0-.018-.121.461.461,0,0,1-.016-.115.184.184,0,0,1,.01-.061.092.092,0,0,1,.038-.046.226.226,0,0,1,.077-.029.656.656,0,0,1,.125-.01.979.979,0,0,1,.19.017.442.442,0,0,1,.158.063.309.309,0,0,1,.108.128.544.544,0,0,1,.046.21v1.957a.9.9,0,0,0,.068.351.808.808,0,0,0,.194.286.934.934,0,0,0,.308.192,1.127,1.127,0,0,0,.411.07,1.069,1.069,0,0,0,.391-.07,1,1,0,0,0,.312-.192.882.882,0,0,0,.207-.286.844.844,0,0,0,.076-.351l0-1.991a.651.651,0,0,0-.018-.121.459.459,0,0,1-.016-.115.179.179,0,0,1,.01-.061.09.09,0,0,1,.038-.046.232.232,0,0,1,.077-.029.657.657,0,0,1,.125-.01,1.132,1.132,0,0,1,.189.016.434.434,0,0,1,.16.061.31.31,0,0,1,.112.129.482.482,0,0,1,.042.215l0,1.951a1.587,1.587,0,0,1-.133.629,1.633,1.633,0,0,1-.359.515,1.712,1.712,0,0,1-.54.349,1.736,1.736,0,0,1-.673.129,1.8,1.8,0,0,1-.684-.128,1.682,1.682,0,0,1-.54-.347,1.586,1.586,0,0,1-.483-1.149Z" transform="translate(-1195.512 -1115.05)" fill="#fff"/>
      <path id="Path_221" data-name="Path 221" d="M1334.142,1118.6a.45.45,0,0,1-.025.151.351.351,0,0,1-.072.125.378.378,0,0,1-.113.086.336.336,0,0,1-.322-.018.63.63,0,0,1-.146-.121l-2.052-2.411v.538c0,.19,0,.382,0,.575s0,.385,0,.574v.535a.362.362,0,0,1-.027.142.345.345,0,0,1-.076.115.339.339,0,0,1-.112.077.357.357,0,0,1-.141.027.344.344,0,0,1-.142-.029.351.351,0,0,1-.114-.077.366.366,0,0,1-.076-.114.359.359,0,0,1-.027-.14v-3.2a.594.594,0,0,0-.018-.119.452.452,0,0,1-.016-.121.172.172,0,0,1,.01-.059.09.09,0,0,1,.038-.046.225.225,0,0,1,.077-.029.653.653,0,0,1,.125-.01,1.174,1.174,0,0,1,.146.008.483.483,0,0,1,.115.027.389.389,0,0,1,.1.053.683.683,0,0,1,.1.086l2.052,2.42,0-2.2a.48.48,0,0,0-.016-.128.446.446,0,0,1-.016-.119.213.213,0,0,1,.009-.068.086.086,0,0,1,.043-.046.292.292,0,0,1,.1-.026,1.389,1.389,0,0,1,.168-.008.862.862,0,0,1,.18.017.345.345,0,0,1,.138.06.286.286,0,0,1,.089.114.411.411,0,0,1,.033.175v3.183Z" transform="translate(-1224.608 -1115.024)" fill="#fff"/>
      <path id="Path_222" data-name="Path 222" d="M1366.047,1116.2a.4.4,0,0,1-.081,0,.276.276,0,0,1-.077-.02.39.39,0,0,1-.078-.043.887.887,0,0,1-.086-.071,1.364,1.364,0,0,0-.293-.237.618.618,0,0,0-.321-.081.709.709,0,0,0-.19.027.64.64,0,0,0-.176.078.431.431,0,0,0-.129.128.3.3,0,0,0-.051.172.289.289,0,0,0,.083.2.9.9,0,0,0,.221.168,3.356,3.356,0,0,0,.313.155q.174.076.356.16t.356.184a1.744,1.744,0,0,1,.313.227,1,1,0,0,1,.22.29.818.818,0,0,1,.082.374.941.941,0,0,1-.125.486,1.151,1.151,0,0,1-.329.359,1.548,1.548,0,0,1-.455.223,1.76,1.76,0,0,1-.511.077,1.873,1.873,0,0,1-.546-.073,1.408,1.408,0,0,1-.4-.192,1,1,0,0,1-.26-.262.81.81,0,0,1-.125-.286.383.383,0,0,1,.006-.141.322.322,0,0,1,.054-.12.29.29,0,0,1,.243-.117.336.336,0,0,1,.158.042.878.878,0,0,1,.162.115.573.573,0,0,0,.116.133.913.913,0,0,0,.167.112,1.014,1.014,0,0,0,.2.078.861.861,0,0,0,.226.029.915.915,0,0,0,.228-.029.761.761,0,0,0,.209-.086.513.513,0,0,0,.154-.141.324.324,0,0,0,.06-.194.29.29,0,0,0-.081-.2.943.943,0,0,0-.211-.164,2.563,2.563,0,0,0-.3-.147c-.112-.047-.227-.1-.346-.151s-.232-.113-.346-.177a1.436,1.436,0,0,1-.3-.224,1.051,1.051,0,0,1-.211-.291.837.837,0,0,1-.081-.378.976.976,0,0,1,.367-.776,1.283,1.283,0,0,1,.41-.219,1.627,1.627,0,0,1,.515-.078,1.4,1.4,0,0,1,.282.03,1.764,1.764,0,0,1,.282.086,1.638,1.638,0,0,1,.258.129,1.286,1.286,0,0,1,.212.16.731.731,0,0,1,.143.182.388.388,0,0,1,.052.191.335.335,0,0,1-.027.146.26.26,0,0,1-.073.093.3.3,0,0,1-.108.051A.844.844,0,0,1,1366.047,1116.2Z" transform="translate(-1253.384 -1115.084)" fill="#fff"/>
      <path id="Path_223" data-name="Path 223" d="M1394.348,1118.615a.348.348,0,0,1-.031.148.358.358,0,0,1-.082.115.377.377,0,0,1-.123.073.446.446,0,0,1-.15.026H1391.9a.387.387,0,0,1-.3-.115.429.429,0,0,1-.107-.305v-3.12a.772.772,0,0,0-.02-.128.565.565,0,0,1-.017-.128.141.141,0,0,1,.046-.108.293.293,0,0,1,.184-.042h2.283a.373.373,0,0,1,.2.051.329.329,0,0,1,.123.128.359.359,0,0,1,0,.334.328.328,0,0,1-.12.128.372.372,0,0,1-.2.051h-1.757v.944h1.365a.359.359,0,0,1,.278.137.332.332,0,0,1,.064.141.294.294,0,0,1-.014.166.322.322,0,0,1-.123.167.342.342,0,0,1-.2.06h-1.368v.914h1.739a.453.453,0,0,1,.151.025.389.389,0,0,1,.125.071.334.334,0,0,1,.085.113A.375.375,0,0,1,1394.348,1118.615Z" transform="translate(-1277.477 -1115.007)" fill="#fff"/>
      <path id="Path_224" data-name="Path 224" d="M1422.655,1118.424a.376.376,0,0,1-.1.264.326.326,0,0,1-.107.076.34.34,0,0,1-.132.026h-2.025a.442.442,0,0,1-.163-.037.425.425,0,0,1-.128-.089.4.4,0,0,1-.085-.132.434.434,0,0,1-.031-.166v-3.135a.661.661,0,0,0-.018-.121.454.454,0,0,1-.016-.115.187.187,0,0,1,.01-.061.092.092,0,0,1,.038-.046.225.225,0,0,1,.077-.029.636.636,0,0,1,.125-.01.968.968,0,0,1,.2.02.4.4,0,0,1,.158.068.333.333,0,0,1,.1.132.507.507,0,0,1,.038.212v2.785h1.687a.366.366,0,0,1,.133.026.361.361,0,0,1,.116.073.344.344,0,0,1,.081.114A.358.358,0,0,1,1422.655,1118.424Z" transform="translate(-1302.163 -1114.85)" fill="#fff"/>
      <path id="Path_225" data-name="Path 225" d="M1448.428,1116.2a.4.4,0,0,1-.081,0,.278.278,0,0,1-.077-.02.393.393,0,0,1-.078-.043.872.872,0,0,1-.086-.071,1.362,1.362,0,0,0-.294-.237.617.617,0,0,0-.321-.081.711.711,0,0,0-.19.027.64.64,0,0,0-.176.078.428.428,0,0,0-.129.128.3.3,0,0,0-.051.172.294.294,0,0,0,.082.2.909.909,0,0,0,.22.168,3.362,3.362,0,0,0,.313.155q.174.076.356.16t.356.184a1.744,1.744,0,0,1,.313.227,1,1,0,0,1,.221.29.821.821,0,0,1,.082.374.942.942,0,0,1-.125.486,1.152,1.152,0,0,1-.329.359,1.565,1.565,0,0,1-.455.223,1.718,1.718,0,0,1-.511.077,1.875,1.875,0,0,1-.546-.073,1.413,1.413,0,0,1-.4-.192,1,1,0,0,1-.26-.262.813.813,0,0,1-.125-.286.383.383,0,0,1,.007-.141.344.344,0,0,1,.053-.12.289.289,0,0,1,.244-.117.337.337,0,0,1,.158.042.839.839,0,0,1,.16.115.582.582,0,0,0,.116.133.909.909,0,0,0,.167.112,1.014,1.014,0,0,0,.2.078.86.86,0,0,0,.226.029.916.916,0,0,0,.228-.029.756.756,0,0,0,.209-.086.514.514,0,0,0,.154-.141.325.325,0,0,0,.06-.194.29.29,0,0,0-.081-.2.94.94,0,0,0-.211-.164,2.556,2.556,0,0,0-.3-.147c-.112-.047-.227-.1-.346-.151s-.232-.113-.346-.177a1.4,1.4,0,0,1-.3-.224,1.053,1.053,0,0,1-.211-.291.835.835,0,0,1-.081-.378.976.976,0,0,1,.366-.776,1.27,1.27,0,0,1,.41-.219,1.627,1.627,0,0,1,.515-.078,1.4,1.4,0,0,1,.282.03,1.763,1.763,0,0,1,.282.086,1.653,1.653,0,0,1,.258.129,1.293,1.293,0,0,1,.211.16.771.771,0,0,1,.145.182.39.39,0,0,1,.052.191.335.335,0,0,1-.027.146.259.259,0,0,1-.073.093.3.3,0,0,1-.108.051A.85.85,0,0,1,1448.428,1116.2Z" transform="translate(-1325.018 -1115.084)" fill="#fff"/>
    </g>
  </g>
</svg>
